<svg xmlns="http://www.w3.org/2000/svg" xmlns:xlink="http://www.w3.org/1999/xlink" contentStyleType="text/css" height="806px" preserveAspectRatio="none" style="width:612px;height:806px;background:#FFFFFF;" version="1.1" viewBox="0 0 612 806" width="612px" zoomAndPan="magnify"><defs/><g><!--cluster Backend Structure--><g id="cluster_Backend Structure"><rect fill="none" height="793.16" rx="2.5" ry="2.5" style="stroke:#000000;stroke-width:1.5;" width="599" x="7" y="7"/><text fill="#000000" font-family="sans-serif" font-size="14" font-weight="bold" lengthAdjust="spacing" textLength="147.0889" x="232.9556" y="21.9951">Backend Structure</text></g><!--cluster Controllers--><g id="cluster_Controllers"><rect fill="none" height="180.48" rx="2.5" ry="2.5" style="stroke:#000000;stroke-width:1.5;" width="351" x="31" y="382.49"/><text fill="#000000" font-family="sans-serif" font-size="14" font-weight="bold" lengthAdjust="spacing" textLength="87.4043" x="162.7979" y="397.4851">Controllers</text></g><!--cluster Middleware--><g id="cluster_Middleware"><rect fill="none" height="131.6" rx="2.5" ry="2.5" style="stroke:#000000;stroke-width:1.5;" width="176" x="406" y="406.93"/><text fill="#000000" font-family="sans-serif" font-size="14" font-weight="bold" lengthAdjust="spacing" textLength="91.8477" x="448.0762" y="421.9251">Middleware</text></g><!--cluster Models--><g id="cluster_Models"><rect fill="none" height="164.19" rx="2.5" ry="2.5" style="stroke:#000000;stroke-width:1.5;" width="363" x="198" y="611.97"/><text fill="#000000" font-family="sans-serif" font-size="14" font-weight="bold" lengthAdjust="spacing" textLength="56.1982" x="351.4009" y="626.9651">Models</text></g><!--cluster Routes--><g id="cluster_Routes"><rect fill="none" height="147.89" rx="2.5" ry="2.5" style="stroke:#000000;stroke-width:1.5;" width="435" x="97" y="185.6"/><text fill="#000000" font-family="sans-serif" font-size="14" font-weight="bold" lengthAdjust="spacing" textLength="54.8857" x="287.0571" y="200.5951">Routes</text></g><!--class Server--><g id="elem_Server"><rect codeLine="52" fill="#F1F1F1" height="80.5938" id="Server" rx="2.5" ry="2.5" style="stroke:#181818;stroke-width:0.5;" width="151.5693" x="211.22" y="42"/><ellipse cx="259.7996" cy="58" fill="#ADD1B2" rx="11" ry="11" style="stroke:#181818;stroke-width:1;"/><path d="M262.7683,63.6406 Q262.1902,63.9375 261.5496,64.0781 Q260.909,64.2344 260.2058,64.2344 Q257.7058,64.2344 256.3777,62.5938 Q255.0652,60.9375 255.0652,57.8125 Q255.0652,54.6875 256.3777,53.0313 Q257.7058,51.375 260.2058,51.375 Q260.909,51.375 261.5496,51.5313 Q262.2058,51.6875 262.7683,51.9844 L262.7683,54.7031 Q262.1433,54.125 261.5496,53.8594 Q260.9558,53.5781 260.3308,53.5781 Q258.9871,53.5781 258.2996,54.6563 Q257.6121,55.7188 257.6121,57.8125 Q257.6121,59.9063 258.2996,60.9844 Q258.9871,62.0469 260.3308,62.0469 Q260.9558,62.0469 261.5496,61.7813 Q262.1433,61.5 262.7683,60.9219 L262.7683,63.6406 Z " fill="#000000"/><text fill="#000000" font-family="sans-serif" font-size="14" lengthAdjust="spacing" textLength="45.9102" x="280.2996" y="62.8467">Server</text><line style="stroke:#181818;stroke-width:0.5;" x1="212.22" x2="361.7893" y1="74" y2="74"/><line style="stroke:#181818;stroke-width:0.5;" x1="212.22" x2="361.7893" y1="82" y2="82"/><ellipse cx="222.22" cy="95.6484" fill="#84BE84" rx="3" ry="3" style="stroke:#038048;stroke-width:1;"/><text fill="#000000" font-family="sans-serif" font-size="14" lengthAdjust="spacing" textLength="43.5313" x="231.22" y="98.9951">start()</text><ellipse cx="222.22" cy="111.9453" fill="#84BE84" rx="3" ry="3" style="stroke:#038048;stroke-width:1;"/><text fill="#000000" font-family="sans-serif" font-size="14" lengthAdjust="spacing" textLength="125.5693" x="231.22" y="115.292">configureRoutes()</text></g><!--class AuthController--><g id="elem_AuthController"><rect codeLine="5" fill="#F1F1F1" height="129.4844" id="AuthController" rx="2.5" ry="2.5" style="stroke:#181818;stroke-width:0.5;" width="133.9854" x="47.01" y="417.49"/><ellipse cx="62.01" cy="433.49" fill="#ADD1B2" rx="11" ry="11" style="stroke:#181818;stroke-width:1;"/><path d="M64.9787,439.1306 Q64.4006,439.4275 63.76,439.5681 Q63.1194,439.7244 62.4163,439.7244 Q59.9163,439.7244 58.5881,438.0837 Q57.2756,436.4275 57.2756,433.3025 Q57.2756,430.1775 58.5881,428.5212 Q59.9163,426.865 62.4163,426.865 Q63.1194,426.865 63.76,427.0212 Q64.4162,427.1775 64.9787,427.4744 L64.9787,430.1931 Q64.3537,429.615 63.76,429.3494 Q63.1663,429.0681 62.5413,429.0681 Q61.1975,429.0681 60.51,430.1462 Q59.8225,431.2087 59.8225,433.3025 Q59.8225,435.3962 60.51,436.4744 Q61.1975,437.5369 62.5413,437.5369 Q63.1663,437.5369 63.76,437.2712 Q64.3537,436.99 64.9787,436.4119 L64.9787,439.1306 Z " fill="#000000"/><text fill="#000000" font-family="sans-serif" font-size="14" lengthAdjust="spacing" textLength="101.9854" x="76.01" y="438.3367">AuthController</text><line style="stroke:#181818;stroke-width:0.5;" x1="48.01" x2="179.9954" y1="449.49" y2="449.49"/><line style="stroke:#181818;stroke-width:0.5;" x1="48.01" x2="179.9954" y1="457.49" y2="457.49"/><ellipse cx="58.01" cy="471.1384" fill="#84BE84" rx="3" ry="3" style="stroke:#038048;stroke-width:1;"/><text fill="#000000" font-family="sans-serif" font-size="14" lengthAdjust="spacing" textLength="87.582" x="67.01" y="474.4851">createUser()</text><ellipse cx="58.01" cy="487.4353" fill="#84BE84" rx="3" ry="3" style="stroke:#038048;stroke-width:1;"/><text fill="#000000" font-family="sans-serif" font-size="14" lengthAdjust="spacing" textLength="74.6689" x="67.01" y="490.782">readUser()</text><ellipse cx="58.01" cy="503.7322" fill="#84BE84" rx="3" ry="3" style="stroke:#038048;stroke-width:1;"/><text fill="#000000" font-family="sans-serif" font-size="14" lengthAdjust="spacing" textLength="92.1621" x="67.01" y="507.0789">updateUser()</text><ellipse cx="58.01" cy="520.0291" fill="#84BE84" rx="3" ry="3" style="stroke:#038048;stroke-width:1;"/><text fill="#000000" font-family="sans-serif" font-size="14" lengthAdjust="spacing" textLength="86.9395" x="67.01" y="523.3757">deleteUser()</text><ellipse cx="58.01" cy="536.3259" fill="#84BE84" rx="3" ry="3" style="stroke:#038048;stroke-width:1;"/><text fill="#000000" font-family="sans-serif" font-size="14" lengthAdjust="spacing" textLength="45.0283" x="67.01" y="539.6726">login()</text></g><!--class SurveyController--><g id="elem_SurveyController"><rect codeLine="12" fill="#F1F1F1" height="96.8906" id="SurveyController" rx="2.5" ry="2.5" style="stroke:#181818;stroke-width:0.5;" width="149.8721" x="216.06" y="433.78"/><ellipse cx="231.06" cy="449.78" fill="#ADD1B2" rx="11" ry="11" style="stroke:#181818;stroke-width:1;"/><path d="M234.0288,455.4206 Q233.4506,455.7175 232.81,455.8581 Q232.1694,456.0144 231.4663,456.0144 Q228.9663,456.0144 227.6381,454.3738 Q226.3256,452.7175 226.3256,449.5925 Q226.3256,446.4675 227.6381,444.8113 Q228.9663,443.155 231.4663,443.155 Q232.1694,443.155 232.81,443.3113 Q233.4663,443.4675 234.0288,443.7644 L234.0288,446.4831 Q233.4038,445.905 232.81,445.6394 Q232.2163,445.3581 231.5913,445.3581 Q230.2475,445.3581 229.56,446.4363 Q228.8725,447.4988 228.8725,449.5925 Q228.8725,451.6863 229.56,452.7644 Q230.2475,453.8269 231.5913,453.8269 Q232.2163,453.8269 232.81,453.5613 Q233.4038,453.28 234.0288,452.7019 L234.0288,455.4206 Z " fill="#000000"/><text fill="#000000" font-family="sans-serif" font-size="14" lengthAdjust="spacing" textLength="117.8721" x="245.06" y="454.6267">SurveyController</text><line style="stroke:#181818;stroke-width:0.5;" x1="217.06" x2="364.9321" y1="465.78" y2="465.78"/><line style="stroke:#181818;stroke-width:0.5;" x1="217.06" x2="364.9321" y1="473.78" y2="473.78"/><ellipse cx="227.06" cy="487.4284" fill="#84BE84" rx="3" ry="3" style="stroke:#038048;stroke-width:1;"/><text fill="#000000" font-family="sans-serif" font-size="14" lengthAdjust="spacing" textLength="104.3711" x="236.06" y="490.7751">createSurvey()</text><ellipse cx="227.06" cy="503.7253" fill="#84BE84" rx="3" ry="3" style="stroke:#038048;stroke-width:1;"/><text fill="#000000" font-family="sans-serif" font-size="14" lengthAdjust="spacing" textLength="91.458" x="236.06" y="507.072">readSurvey()</text><ellipse cx="227.06" cy="520.0222" fill="#84BE84" rx="3" ry="3" style="stroke:#038048;stroke-width:1;"/><text fill="#000000" font-family="sans-serif" font-size="14" lengthAdjust="spacing" textLength="103.7285" x="236.06" y="523.3689">deleteSurvey()</text></g><!--class authMiddleware--><g id="elem_authMiddleware"><rect codeLine="20" fill="#F1F1F1" height="80.5938" id="authMiddleware" rx="2.5" ry="2.5" style="stroke:#181818;stroke-width:0.5;" width="144.458" x="421.77" y="441.93"/><ellipse cx="436.77" cy="457.93" fill="#ADD1B2" rx="11" ry="11" style="stroke:#181818;stroke-width:1;"/><path d="M439.7388,463.5706 Q439.1606,463.8675 438.52,464.0081 Q437.8794,464.1644 437.1763,464.1644 Q434.6763,464.1644 433.3481,462.5237 Q432.0356,460.8675 432.0356,457.7425 Q432.0356,454.6175 433.3481,452.9612 Q434.6763,451.305 437.1763,451.305 Q437.8794,451.305 438.52,451.4612 Q439.1763,451.6175 439.7388,451.9144 L439.7388,454.6331 Q439.1138,454.055 438.52,453.7894 Q437.9263,453.5081 437.3013,453.5081 Q435.9575,453.5081 435.27,454.5862 Q434.5825,455.6487 434.5825,457.7425 Q434.5825,459.8362 435.27,460.9144 Q435.9575,461.9769 437.3013,461.9769 Q437.9263,461.9769 438.52,461.7112 Q439.1138,461.43 439.7388,460.8519 L439.7388,463.5706 Z " fill="#000000"/><text fill="#000000" font-family="sans-serif" font-size="14" lengthAdjust="spacing" textLength="112.458" x="450.77" y="462.7767">authMiddleware</text><line style="stroke:#181818;stroke-width:0.5;" x1="422.77" x2="565.228" y1="473.93" y2="473.93"/><line style="stroke:#181818;stroke-width:0.5;" x1="422.77" x2="565.228" y1="481.93" y2="481.93"/><ellipse cx="432.77" cy="495.5784" fill="#84BE84" rx="3" ry="3" style="stroke:#038048;stroke-width:1;"/><text fill="#000000" font-family="sans-serif" font-size="14" lengthAdjust="spacing" textLength="93.3926" x="441.77" y="498.9251">verifyToken()</text><ellipse cx="432.77" cy="511.8753" fill="#84BE84" rx="3" ry="3" style="stroke:#038048;stroke-width:1;"/><text fill="#000000" font-family="sans-serif" font-size="14" lengthAdjust="spacing" textLength="109.9834" x="441.77" y="515.222">protectRoutes()</text></g><!--class User--><g id="elem_User"><rect codeLine="27" fill="#F1F1F1" height="96.8906" id="User" rx="2.5" ry="2.5" style="stroke:#181818;stroke-width:0.5;" width="142.0674" x="402.97" y="655.12"/><ellipse cx="453.7986" cy="671.12" fill="#ADD1B2" rx="11" ry="11" style="stroke:#181818;stroke-width:1;"/><path d="M456.7674,676.7606 Q456.1892,677.0575 455.5486,677.1981 Q454.908,677.3544 454.2049,677.3544 Q451.7049,677.3544 450.3767,675.7138 Q449.0642,674.0575 449.0642,670.9325 Q449.0642,667.8075 450.3767,666.1513 Q451.7049,664.495 454.2049,664.495 Q454.908,664.495 455.5486,664.6513 Q456.2049,664.8075 456.7674,665.1044 L456.7674,667.8231 Q456.1424,667.245 455.5486,666.9794 Q454.9549,666.6981 454.3299,666.6981 Q452.9861,666.6981 452.2986,667.7763 Q451.6111,668.8388 451.6111,670.9325 Q451.6111,673.0263 452.2986,674.1044 Q452.9861,675.1669 454.3299,675.1669 Q454.9549,675.1669 455.5486,674.9013 Q456.1424,674.62 456.7674,674.0419 L456.7674,676.7606 Z " fill="#000000"/><text fill="#000000" font-family="sans-serif" font-size="14" lengthAdjust="spacing" textLength="31.9102" x="474.2986" y="675.9667">User</text><line style="stroke:#181818;stroke-width:0.5;" x1="403.97" x2="544.0374" y1="687.12" y2="687.12"/><ellipse cx="413.97" cy="700.7684" fill="none" rx="3" ry="3" style="stroke:#038048;stroke-width:1;"/><text fill="#000000" font-family="sans-serif" font-size="14" lengthAdjust="spacing" textLength="89.0586" x="422.97" y="704.1151">name: string</text><ellipse cx="413.97" cy="717.0653" fill="none" rx="3" ry="3" style="stroke:#038048;stroke-width:1;"/><text fill="#000000" font-family="sans-serif" font-size="14" lengthAdjust="spacing" textLength="87.9648" x="422.97" y="720.412">email: string</text><ellipse cx="413.97" cy="733.3622" fill="none" rx="3" ry="3" style="stroke:#038048;stroke-width:1;"/><text fill="#000000" font-family="sans-serif" font-size="14" lengthAdjust="spacing" textLength="116.0674" x="422.97" y="736.7089">password: string</text><line style="stroke:#181818;stroke-width:0.5;" x1="403.97" x2="544.0374" y1="744.0106" y2="744.0106"/></g><!--class Survey--><g id="elem_Survey"><rect codeLine="32" fill="#F1F1F1" height="113.1875" id="Survey" rx="2.5" ry="2.5" style="stroke:#181818;stroke-width:0.5;" width="153.1963" x="214.4" y="646.97"/><ellipse cx="262.3985" cy="662.97" fill="#ADD1B2" rx="11" ry="11" style="stroke:#181818;stroke-width:1;"/><path d="M265.3673,668.6106 Q264.7892,668.9075 264.1485,669.0481 Q263.5079,669.2044 262.8048,669.2044 Q260.3048,669.2044 258.9767,667.5637 Q257.6642,665.9075 257.6642,662.7825 Q257.6642,659.6575 258.9767,658.0012 Q260.3048,656.345 262.8048,656.345 Q263.5079,656.345 264.1485,656.5012 Q264.8048,656.6575 265.3673,656.9544 L265.3673,659.6731 Q264.7423,659.095 264.1485,658.8294 Q263.5548,658.5481 262.9298,658.5481 Q261.586,658.5481 260.8985,659.6262 Q260.211,660.6887 260.211,662.7825 Q260.211,664.8762 260.8985,665.9544 Q261.586,667.0169 262.9298,667.0169 Q263.5548,667.0169 264.1485,666.7512 Q264.7423,666.47 265.3673,665.8919 L265.3673,668.6106 Z " fill="#000000"/><text fill="#000000" font-family="sans-serif" font-size="14" lengthAdjust="spacing" textLength="48.6992" x="282.8985" y="667.8167">Survey</text><line style="stroke:#181818;stroke-width:0.5;" x1="215.4" x2="366.5963" y1="678.97" y2="678.97"/><ellipse cx="225.4" cy="692.6184" fill="none" rx="3" ry="3" style="stroke:#038048;stroke-width:1;"/><text fill="#000000" font-family="sans-serif" font-size="14" lengthAdjust="spacing" textLength="76.7266" x="234.4" y="695.9651">title: string</text><ellipse cx="225.4" cy="708.9153" fill="none" rx="3" ry="3" style="stroke:#038048;stroke-width:1;"/><text fill="#000000" font-family="sans-serif" font-size="14" lengthAdjust="spacing" textLength="127.1963" x="234.4" y="712.262">description: string</text><ellipse cx="225.4" cy="725.2122" fill="none" rx="3" ry="3" style="stroke:#038048;stroke-width:1;"/><text fill="#000000" font-family="sans-serif" font-size="14" lengthAdjust="spacing" textLength="113.9004" x="234.4" y="728.5589">questions: array</text><ellipse cx="225.4" cy="741.5091" fill="none" rx="3" ry="3" style="stroke:#038048;stroke-width:1;"/><text fill="#000000" font-family="sans-serif" font-size="14" lengthAdjust="spacing" textLength="70.9707" x="234.4" y="744.8557">userId: int</text><line style="stroke:#181818;stroke-width:0.5;" x1="215.4" x2="366.5963" y1="752.1575" y2="752.1575"/></g><!--class authRoutes--><g id="elem_authRoutes"><rect codeLine="41" fill="#F1F1F1" height="96.8906" id="authRoutes" rx="2.5" ry="2.5" style="stroke:#181818;stroke-width:0.5;" width="183.6504" x="113.17" y="220.6"/><ellipse cx="160.5567" cy="236.6" fill="#ADD1B2" rx="11" ry="11" style="stroke:#181818;stroke-width:1;"/><path d="M163.5255,242.2406 Q162.9473,242.5375 162.3067,242.6781 Q161.6661,242.8344 160.963,242.8344 Q158.463,242.8344 157.1348,241.1938 Q155.8223,239.5375 155.8223,236.4125 Q155.8223,233.2875 157.1348,231.6313 Q158.463,229.975 160.963,229.975 Q161.6661,229.975 162.3067,230.1313 Q162.963,230.2875 163.5255,230.5844 L163.5255,233.3031 Q162.9005,232.725 162.3067,232.4594 Q161.713,232.1781 161.088,232.1781 Q159.7442,232.1781 159.0567,233.2563 Q158.3692,234.3188 158.3692,236.4125 Q158.3692,238.5063 159.0567,239.5844 Q159.7442,240.6469 161.088,240.6469 Q161.713,240.6469 162.3067,240.3813 Q162.9005,240.1 163.5255,239.5219 L163.5255,242.2406 Z " fill="#000000"/><text fill="#000000" font-family="sans-serif" font-size="14" lengthAdjust="spacing" textLength="80.377" x="181.0567" y="241.4467">authRoutes</text><line style="stroke:#181818;stroke-width:0.5;" x1="114.17" x2="295.8204" y1="252.6" y2="252.6"/><line style="stroke:#181818;stroke-width:0.5;" x1="114.17" x2="295.8204" y1="260.6" y2="260.6"/><ellipse cx="124.17" cy="274.2484" fill="#84BE84" rx="3" ry="3" style="stroke:#038048;stroke-width:1;"/><text fill="#000000" font-family="sans-serif" font-size="14" lengthAdjust="spacing" textLength="96.6533" x="133.17" y="277.5951">handleLogin()</text><ellipse cx="124.17" cy="290.5453" fill="#84BE84" rx="3" ry="3" style="stroke:#038048;stroke-width:1;"/><text fill="#000000" font-family="sans-serif" font-size="14" lengthAdjust="spacing" textLength="131.0791" x="133.17" y="293.892">handleUserCRUD()</text><ellipse cx="124.17" cy="306.8422" fill="#84BE84" rx="3" ry="3" style="stroke:#038048;stroke-width:1;"/><text fill="#000000" font-family="sans-serif" font-size="14" lengthAdjust="spacing" textLength="157.6504" x="133.17" y="310.1889">configureMiddleware()</text></g><!--class surveyRoutes--><g id="elem_surveyRoutes"><rect codeLine="46" fill="#F1F1F1" height="80.5938" id="surveyRoutes" rx="2.5" ry="2.5" style="stroke:#181818;stroke-width:0.5;" width="183.6504" x="332.17" y="228.75"/><ellipse cx="372.3617" cy="244.75" fill="#ADD1B2" rx="11" ry="11" style="stroke:#181818;stroke-width:1;"/><path d="M375.3304,250.3906 Q374.7523,250.6875 374.1117,250.8281 Q373.471,250.9844 372.7679,250.9844 Q370.2679,250.9844 368.9398,249.3438 Q367.6273,247.6875 367.6273,244.5625 Q367.6273,241.4375 368.9398,239.7813 Q370.2679,238.125 372.7679,238.125 Q373.471,238.125 374.1117,238.2813 Q374.7679,238.4375 375.3304,238.7344 L375.3304,241.4531 Q374.7054,240.875 374.1117,240.6094 Q373.5179,240.3281 372.8929,240.3281 Q371.5492,240.3281 370.8617,241.4063 Q370.1742,242.4688 370.1742,244.5625 Q370.1742,246.6563 370.8617,247.7344 Q371.5492,248.7969 372.8929,248.7969 Q373.5179,248.7969 374.1117,248.5313 Q374.7054,248.25 375.3304,247.6719 L375.3304,250.3906 Z " fill="#000000"/><text fill="#000000" font-family="sans-serif" font-size="14" lengthAdjust="spacing" textLength="95.6689" x="391.9598" y="249.5967">surveyRoutes</text><line style="stroke:#181818;stroke-width:0.5;" x1="333.17" x2="514.8204" y1="260.75" y2="260.75"/><line style="stroke:#181818;stroke-width:0.5;" x1="333.17" x2="514.8204" y1="268.75" y2="268.75"/><ellipse cx="343.17" cy="282.3984" fill="#84BE84" rx="3" ry="3" style="stroke:#038048;stroke-width:1;"/><text fill="#000000" font-family="sans-serif" font-size="14" lengthAdjust="spacing" textLength="147.8682" x="352.17" y="285.7451">handleSurveyCRUD()</text><ellipse cx="343.17" cy="298.6953" fill="#84BE84" rx="3" ry="3" style="stroke:#038048;stroke-width:1;"/><text fill="#000000" font-family="sans-serif" font-size="14" lengthAdjust="spacing" textLength="157.6504" x="352.17" y="302.042">configureMiddleware()</text></g><!--link authRoutes to AuthController--><g id="link_authRoutes_AuthController"><path codeLine="57" d="M184.35,317.96 C171.71,347.29 157.7656,379.6803 144.0156,411.5703 " fill="none" id="authRoutes-to-AuthController" style="stroke:#181818;stroke-width:1;"/><polygon fill="#181818" points="141.64,417.08,148.8765,410.3992,143.6197,412.4886,141.5303,407.2318,141.64,417.08" style="stroke:#181818;stroke-width:1;"/><text fill="#000000" font-family="sans-serif" font-size="13" lengthAdjust="spacing" textLength="29.1104" x="171" y="362.5569">calls</text></g><!--link surveyRoutes to SurveyController--><g id="link_surveyRoutes_SurveyController"><path codeLine="58" d="M398.98,309.77 C376.86,344.89 347.7375,391.143 324.2275,428.473 " fill="none" id="surveyRoutes-to-SurveyController" style="stroke:#181818;stroke-width:1;"/><polygon fill="#181818" points="321.03,433.55,329.2109,428.0661,323.6945,429.3191,322.4415,423.8028,321.03,433.55" style="stroke:#181818;stroke-width:1;"/><text fill="#000000" font-family="sans-serif" font-size="13" lengthAdjust="spacing" textLength="29.1104" x="374" y="362.5569">calls</text></g><!--link Server to authRoutes--><g id="link_Server_authRoutes"><path codeLine="59" d="M269.41,122.93 C256.75,151.45 242.0436,184.5757 228.6336,214.7957 " fill="none" id="Server-to-authRoutes" style="stroke:#181818;stroke-width:1;"/><polygon fill="#181818" points="226.2,220.28,233.5066,213.676,228.228,215.7098,226.1943,210.4311,226.2,220.28" style="stroke:#181818;stroke-width:1;"/><text fill="#000000" font-family="sans-serif" font-size="13" lengthAdjust="spacing" textLength="68.1357" x="256" y="165.6669">configures</text></g><!--link Server to surveyRoutes--><g id="link_Server_surveyRoutes"><path codeLine="60" d="M316.39,122.93 C339.51,154.1 367.9868,192.5 391.0868,223.66 " fill="none" id="Server-to-surveyRoutes" style="stroke:#181818;stroke-width:1;"/><polygon fill="#181818" points="394.66,228.48,392.5135,218.8679,391.6823,224.4634,386.0869,223.6322,394.66,228.48" style="stroke:#181818;stroke-width:1;"/><text fill="#000000" font-family="sans-serif" font-size="13" lengthAdjust="spacing" textLength="68.1357" x="348" y="165.6669">configures</text></g><!--link authRoutes to authMiddleware--><g id="link_authRoutes_authMiddleware"><path codeLine="61" d="M252.85,317.95 C273.66,336.03 299.36,354.99 326,366.49 C349.08,376.45 359.38,363.52 382,374.49 C414.02,390.02 438.9609,413.5442 459.3709,436.9942 " fill="none" id="authRoutes-to-authMiddleware" style="stroke:#181818;stroke-width:1;"/><polygon fill="#181818" points="463.31,441.52,460.4185,432.1051,460.0274,437.7485,454.3841,437.3573,463.31,441.52" style="stroke:#181818;stroke-width:1;"/><text fill="#000000" font-family="sans-serif" font-size="13" lengthAdjust="spacing" textLength="29.7832" x="327" y="362.5569">uses</text></g><!--link surveyRoutes to authMiddleware--><g id="link_surveyRoutes_authMiddleware"><path codeLine="62" d="M437.17,309.77 C449.68,347.52 466.5131,398.2944 479.0031,435.9944 " fill="none" id="surveyRoutes-to-authMiddleware" style="stroke:#181818;stroke-width:1;"/><polygon fill="#181818" points="480.89,441.69,481.8566,431.8887,479.3176,436.9437,474.2625,434.4046,480.89,441.69" style="stroke:#181818;stroke-width:1;"/><text fill="#000000" font-family="sans-serif" font-size="13" lengthAdjust="spacing" textLength="29.7832" x="455" y="362.5569">uses</text></g><!--link authMiddleware to User--><g id="link_authMiddleware_User"><path codeLine="63" d="M490.38,522.95 C487,559.99 482.5054,609.3148 478.9054,648.7548 " fill="none" id="authMiddleware-to-User" style="stroke:#181818;stroke-width:1;"/><polygon fill="#181818" points="478.36,654.73,483.1615,646.1309,478.8145,649.7507,475.1947,645.4037,478.36,654.73" style="stroke:#181818;stroke-width:1;"/><text fill="#000000" font-family="sans-serif" font-size="13" lengthAdjust="spacing" textLength="47.6074" x="486" y="592.0369">verifies</text></g><!--link SurveyController to Survey--><g id="link_SurveyController_Survey"><path codeLine="64" d="M291,531.09 C291,565.13 291,604.95 291,640.67 " fill="none" id="SurveyController-to-Survey" style="stroke:#181818;stroke-width:1;"/><polygon fill="#181818" points="291,646.67,295,637.67,291,641.67,287,637.67,291,646.67" style="stroke:#181818;stroke-width:1;"/><text fill="#000000" font-family="sans-serif" font-size="13" lengthAdjust="spacing" textLength="59.8584" x="292" y="592.0369">manages</text></g><!--link AuthController to User--><g id="link_AuthController_User"><path codeLine="65" d="M159.82,547.35 C177,566.43 198.2,585.12 222,595.97 C255,611.02 352.23,588.43 385,603.97 C408.44,615.09 424.7842,630.7356 439.8642,650.1056 " fill="none" id="AuthController-to-User" style="stroke:#181818;stroke-width:1;"/><polygon fill="#181818" points="443.55,654.84,441.1775,645.2812,440.4785,650.8947,434.865,650.1956,443.55,654.84" style="stroke:#181818;stroke-width:1;"/><text fill="#000000" font-family="sans-serif" font-size="13" lengthAdjust="spacing" textLength="59.8584" x="223" y="592.0369">manages</text></g><!--SRC=[dLH1Ri8m4Bpd5HQdLgWVu52ffPTAxGNA0wnu2HR6JjSEAAhuUzT988wTG5MVK6QyEvwTnUwbBZdo0ojvlkS5h5sjW27aBikwJspsIZz02xPsMEMkGfYndupHkJAMHZiqIW7Q2-PFhhYrxALokvuGmFxCMOx07MmiuCDZ114YHe6g55Dt12YOW9Gff0w-dYEXwmgFKD-Lsj96nKv0hQO4RFkViw6Ndr881IVUszmhv6HbZoVwZe1oMtyPcbQYeKJZQAmhKpcmzqKOqZmoI-zhqbRp0ooOTIXr4K5mu59DO2KLF1aK2Jm-bwIjaqvDzHLWSvIbaqPFCBuhi1ws2yOHUHqdZ1xwJjAaTdUiQXqTdrMB9SftNDC8Fw8uXfZtURdQl2LmRlHM5hI3VGnk9DespjrKqON-lxqwDxf10TKAyp4dxpcwu5PGTH35havWsjFJS_pNiM2pd2lAPSCTFCwpa_qTyZjrdXcqyPoBefGuw3523VKASz9TxM17wH9bQLJo7ov4c9VKh22HccMNLytnstj3FFd0DOMruqQkXaMllFCl]--></g></svg>