<svg xmlns="http://www.w3.org/2000/svg" xmlns:xlink="http://www.w3.org/1999/xlink" contentStyleType="text/css" height="335px" preserveAspectRatio="none" style="width:769px;height:335px;background:#FFFFFF;" version="1.1" viewBox="0 0 769 335" width="769px" zoomAndPan="magnify"><defs/><g><ellipse cx="537.0615" cy="20" fill="#222222" rx="10" ry="10" style="stroke:#222222;stroke-width:1;"/><rect fill="#F1F1F1" height="33.9688" rx="12.5" ry="12.5" style="stroke:#181818;stroke-width:0.5;" width="202.4668" x="435.8281" y="50"/><text fill="#000000" font-family="sans-serif" font-size="12" lengthAdjust="spacing" textLength="182.4668" x="445.8281" y="71.1387">Solicitud en rutas de encuetas</text><rect fill="#F1F1F1" height="33.9688" rx="12.5" ry="12.5" style="stroke:#181818;stroke-width:0.5;" width="202.2676" x="435.9277" y="103.9688"/><text fill="#000000" font-family="sans-serif" font-size="12" lengthAdjust="spacing" textLength="182.2676" x="445.9277" y="125.1074">authMiddleware verifica token</text><polygon fill="#F1F1F1" points="499.0771,157.9375,575.0459,157.9375,587.0459,169.9375,575.0459,181.9375,499.0771,181.9375,487.0771,169.9375,499.0771,157.9375" style="stroke:#181818;stroke-width:0.5;"/><text fill="#000000" font-family="sans-serif" font-size="11" lengthAdjust="spacing" textLength="75.9688" x="499.0771" y="173.7456">Token v&#225;lido?</text><text fill="#000000" font-family="sans-serif" font-size="11" lengthAdjust="spacing" textLength="10.0386" x="477.0386" y="167.3433">S&#237;</text><text fill="#000000" font-family="sans-serif" font-size="11" lengthAdjust="spacing" textLength="14.9585" x="587.0459" y="167.3433">No</text><rect fill="#555555" height="6" rx="2.5" ry="2.5" style="stroke:#555555;stroke-width:1;" width="688.1738" x="11" y="191.9375"/><rect fill="#F1F1F1" height="33.9688" rx="12.5" ry="12.5" style="stroke:#181818;stroke-width:0.5;" width="100.0977" x="23" y="217.9375"/><text fill="#000000" font-family="sans-serif" font-size="12" lengthAdjust="spacing" textLength="80.0977" x="33" y="239.0762">createSurvey</text><rect fill="#F1F1F1" height="33.9688" rx="12.5" ry="12.5" style="stroke:#181818;stroke-width:0.5;" width="163.2207" x="133.0977" y="217.9375"/><text fill="#000000" font-family="sans-serif" font-size="12" lengthAdjust="spacing" textLength="143.2207" x="143.0977" y="239.0762">getSurveysSummarized</text><rect fill="#F1F1F1" height="33.9688" rx="12.5" ry="12.5" style="stroke:#181818;stroke-width:0.5;" width="114.1895" x="306.3184" y="217.9375"/><text fill="#000000" font-family="sans-serif" font-size="12" lengthAdjust="spacing" textLength="94.1895" x="316.3184" y="239.0762">getSurveysById</text><rect fill="#F1F1F1" height="33.9688" rx="12.5" ry="12.5" style="stroke:#181818;stroke-width:0.5;" width="129.1191" x="430.5078" y="217.9375"/><text fill="#000000" font-family="sans-serif" font-size="12" lengthAdjust="spacing" textLength="109.1191" x="440.5078" y="239.0762">getSurveysByTitle</text><rect fill="#F1F1F1" height="33.9688" rx="12.5" ry="12.5" style="stroke:#181818;stroke-width:0.5;" width="99.5469" x="587.627" y="217.9375"/><text fill="#000000" font-family="sans-serif" font-size="12" lengthAdjust="spacing" textLength="79.5469" x="597.627" y="239.0762">deleteSurvey</text><rect fill="#555555" height="6" rx="2.5" ry="2.5" style="stroke:#555555;stroke-width:1;" width="688.1738" x="11" y="271.9063"/><rect fill="#F1F1F1" height="33.9688" rx="12.5" ry="12.5" style="stroke:#181818;stroke-width:0.5;" width="49.7246" x="709.1738" y="191.9375"/><text fill="#000000" font-family="sans-serif" font-size="12" lengthAdjust="spacing" textLength="29.7246" x="719.1738" y="213.0762">Error</text><ellipse cx="734.0361" cy="271.9063" fill="none" rx="11" ry="11" style="stroke:#222222;stroke-width:1;"/><ellipse cx="734.0361" cy="271.9063" fill="#222222" rx="6" ry="6" style="stroke:#222222;stroke-width:1;"/><ellipse cx="537.0615" cy="313.9063" fill="none" rx="11" ry="11" style="stroke:#222222;stroke-width:1;"/><ellipse cx="537.0615" cy="313.9063" fill="#222222" rx="6" ry="6" style="stroke:#222222;stroke-width:1;"/><line style="stroke:#181818;stroke-width:1;" x1="537.0615" x2="537.0615" y1="30" y2="50"/><polygon fill="#181818" points="533.0615,40,537.0615,50,541.0615,40,537.0615,44" style="stroke:#181818;stroke-width:1;"/><line style="stroke:#181818;stroke-width:1;" x1="537.0615" x2="537.0615" y1="83.9688" y2="103.9688"/><polygon fill="#181818" points="533.0615,93.9688,537.0615,103.9688,541.0615,93.9688,537.0615,97.9688" style="stroke:#181818;stroke-width:1;"/><line style="stroke:#181818;stroke-width:1;" x1="73.0488" x2="73.0488" y1="197.9375" y2="217.9375"/><polygon fill="#181818" points="69.0488,207.9375,73.0488,217.9375,77.0488,207.9375,73.0488,211.9375" style="stroke:#181818;stroke-width:1;"/><line style="stroke:#181818;stroke-width:1;" x1="214.708" x2="214.708" y1="197.9375" y2="217.9375"/><polygon fill="#181818" points="210.708,207.9375,214.708,217.9375,218.708,207.9375,214.708,211.9375" style="stroke:#181818;stroke-width:1;"/><line style="stroke:#181818;stroke-width:1;" x1="363.4131" x2="363.4131" y1="197.9375" y2="217.9375"/><polygon fill="#181818" points="359.4131,207.9375,363.4131,217.9375,367.4131,207.9375,363.4131,211.9375" style="stroke:#181818;stroke-width:1;"/><line style="stroke:#181818;stroke-width:1;" x1="495.0674" x2="495.0674" y1="197.9375" y2="217.9375"/><polygon fill="#181818" points="491.0674,207.9375,495.0674,217.9375,499.0674,207.9375,495.0674,211.9375" style="stroke:#181818;stroke-width:1;"/><line style="stroke:#181818;stroke-width:1;" x1="637.4004" x2="637.4004" y1="197.9375" y2="217.9375"/><polygon fill="#181818" points="633.4004,207.9375,637.4004,217.9375,641.4004,207.9375,637.4004,211.9375" style="stroke:#181818;stroke-width:1;"/><line style="stroke:#181818;stroke-width:1;" x1="73.0488" x2="73.0488" y1="251.9063" y2="271.9063"/><polygon fill="#181818" points="69.0488,261.9063,73.0488,271.9063,77.0488,261.9063,73.0488,265.9063" style="stroke:#181818;stroke-width:1;"/><line style="stroke:#181818;stroke-width:1;" x1="214.708" x2="214.708" y1="251.9063" y2="271.9063"/><polygon fill="#181818" points="210.708,261.9063,214.708,271.9063,218.708,261.9063,214.708,265.9063" style="stroke:#181818;stroke-width:1;"/><line style="stroke:#181818;stroke-width:1;" x1="363.4131" x2="363.4131" y1="251.9063" y2="271.9063"/><polygon fill="#181818" points="359.4131,261.9063,363.4131,271.9063,367.4131,261.9063,363.4131,265.9063" style="stroke:#181818;stroke-width:1;"/><line style="stroke:#181818;stroke-width:1;" x1="495.0674" x2="495.0674" y1="251.9063" y2="271.9063"/><polygon fill="#181818" points="491.0674,261.9063,495.0674,271.9063,499.0674,261.9063,495.0674,265.9063" style="stroke:#181818;stroke-width:1;"/><line style="stroke:#181818;stroke-width:1;" x1="637.4004" x2="637.4004" y1="251.9063" y2="271.9063"/><polygon fill="#181818" points="633.4004,261.9063,637.4004,271.9063,641.4004,261.9063,637.4004,265.9063" style="stroke:#181818;stroke-width:1;"/><line style="stroke:#181818;stroke-width:1;" x1="734.0361" x2="734.0361" y1="225.9063" y2="260.9063"/><polygon fill="#181818" points="730.0361,250.9063,734.0361,260.9063,738.0361,250.9063,734.0361,254.9063" style="stroke:#181818;stroke-width:1;"/><line style="stroke:#181818;stroke-width:1;" x1="487.0771" x2="346.0869" y1="169.9375" y2="169.9375"/><line style="stroke:#181818;stroke-width:1;" x1="346.0869" x2="346.0869" y1="169.9375" y2="191.9375"/><polygon fill="#181818" points="342.0869,181.9375,346.0869,191.9375,350.0869,181.9375,346.0869,185.9375" style="stroke:#181818;stroke-width:1;"/><line style="stroke:#181818;stroke-width:1;" x1="587.0459" x2="734.0361" y1="169.9375" y2="169.9375"/><line style="stroke:#181818;stroke-width:1;" x1="734.0361" x2="734.0361" y1="169.9375" y2="191.9375"/><polygon fill="#181818" points="730.0361,181.9375,734.0361,191.9375,738.0361,181.9375,734.0361,185.9375" style="stroke:#181818;stroke-width:1;"/><line style="stroke:#181818;stroke-width:1;" x1="346.0869" x2="346.0869" y1="277.9063" y2="287.9063"/><line style="stroke:#181818;stroke-width:1;" x1="346.0869" x2="537.0615" y1="287.9063" y2="287.9063"/><line style="stroke:#181818;stroke-width:1;" x1="537.0615" x2="537.0615" y1="287.9063" y2="302.9063"/><polygon fill="#181818" points="533.0615,292.9063,537.0615,302.9063,541.0615,292.9063,537.0615,296.9063" style="stroke:#181818;stroke-width:1;"/><line style="stroke:#181818;stroke-width:1;" x1="537.0615" x2="537.0615" y1="137.9375" y2="157.9375"/><polygon fill="#181818" points="533.0615,147.9375,537.0615,157.9375,541.0615,147.9375,537.0615,151.9375" style="stroke:#181818;stroke-width:1;"/><!--SRC=[XOunZi9034NxEONBS8MaM6ab2WfemWMip4zYCMHM7ayGUniEm2cu61E5OeiLL7xMUyLFncgkRcEGJYnxmaIQZHDv5Euo2ZUkvcpZNhmFkB22PgZqqZ5PF65gd9EUgkF2D3zkGNpysf2DvQtQnttZYFgeftA8wax1XZRhZ6lpCiG3oxJw0RRArERpcLL-uTzttzVTn-8e5l1Vv17mTmucluv5IA3g49VrzLOrwgAJnHzN6kdTWay0]--></g></svg>