<svg xmlns="http://www.w3.org/2000/svg" xmlns:xlink="http://www.w3.org/1999/xlink" contentStyleType="text/css" height="418px" preserveAspectRatio="none" style="width:729px;height:418px;background:#FFFFFF;" version="1.1" viewBox="0 0 729 418" width="729px" zoomAndPan="magnify"><defs/><g><ellipse cx="350.3408" cy="20" fill="#222222" rx="10" ry="10" style="stroke:#222222;stroke-width:1;"/><rect fill="#F1F1F1" height="33.9688" rx="12.5" ry="12.5" style="stroke:#181818;stroke-width:0.5;" width="198.2598" x="251.2109" y="50"/><text fill="#000000" font-family="sans-serif" font-size="12" lengthAdjust="spacing" textLength="178.2598" x="261.2109" y="71.1387">Solicitud en rutas de usuarios</text><polygon fill="#F1F1F1" points="312.9204,103.9688,387.7612,103.9688,399.7612,115.9688,387.7612,127.9688,312.9204,127.9688,300.9204,115.9688,312.9204,103.9688" style="stroke:#181818;stroke-width:0.5;"/><text fill="#000000" font-family="sans-serif" font-size="11" lengthAdjust="spacing" textLength="74.8408" x="312.9204" y="119.7769">Ruta p&#250;blica?</text><text fill="#000000" font-family="sans-serif" font-size="11" lengthAdjust="spacing" textLength="10.0386" x="290.8818" y="113.3745">S&#237;</text><text fill="#000000" font-family="sans-serif" font-size="11" lengthAdjust="spacing" textLength="14.9585" x="399.7612" y="113.3745">No</text><rect fill="#555555" height="6" rx="2.5" ry="2.5" style="stroke:#555555;stroke-width:1;" width="252.4609" x="11" y="137.9688"/><rect fill="#F1F1F1" height="33.9688" rx="12.5" ry="12.5" style="stroke:#181818;stroke-width:0.5;" width="66.541" x="23" y="163.9688"/><text fill="#000000" font-family="sans-serif" font-size="12" lengthAdjust="spacing" textLength="46.541" x="33" y="185.1074">register</text><rect fill="#F1F1F1" height="33.9688" rx="12.5" ry="12.5" style="stroke:#181818;stroke-width:0.5;" width="49.2324" x="99.541" y="163.9688"/><text fill="#000000" font-family="sans-serif" font-size="12" lengthAdjust="spacing" textLength="29.2324" x="109.541" y="185.1074">login</text><rect fill="#F1F1F1" height="33.9688" rx="12.5" ry="12.5" style="stroke:#181818;stroke-width:0.5;" width="90.6875" x="158.7734" y="163.9688"/><text fill="#000000" font-family="sans-serif" font-size="12" lengthAdjust="spacing" textLength="70.6875" x="168.7734" y="185.1074">verifyToken</text><rect fill="#555555" height="6" rx="2.5" ry="2.5" style="stroke:#555555;stroke-width:1;" width="252.4609" x="11" y="217.9375"/><rect fill="#F1F1F1" height="33.9688" rx="12.5" ry="12.5" style="stroke:#181818;stroke-width:0.5;" width="269.6328" x="447.6348" y="137.9688"/><text fill="#000000" font-family="sans-serif" font-size="12" lengthAdjust="spacing" textLength="249.6328" x="457.6348" y="159.1074">Middleware protect verifica autenticaci&#243;n</text><polygon fill="#F1F1F1" points="544.4668,206.9375,620.4355,206.9375,632.4355,218.9375,620.4355,230.9375,544.4668,230.9375,532.4668,218.9375,544.4668,206.9375" style="stroke:#181818;stroke-width:0.5;"/><text fill="#000000" font-family="sans-serif" font-size="11" lengthAdjust="spacing" textLength="75.9688" x="544.4668" y="222.7456">Token v&#225;lido?</text><text fill="#000000" font-family="sans-serif" font-size="11" lengthAdjust="spacing" textLength="10.0386" x="522.4282" y="216.3433">S&#237;</text><text fill="#000000" font-family="sans-serif" font-size="11" lengthAdjust="spacing" textLength="14.9585" x="632.4355" y="216.3433">No</text><rect fill="#555555" height="6" rx="2.5" ry="2.5" style="stroke:#555555;stroke-width:1;" width="355.4121" x="293.4609" y="240.9375"/><rect fill="#F1F1F1" height="33.9688" rx="12.5" ry="12.5" style="stroke:#181818;stroke-width:0.5;" width="85.1563" x="307.4609" y="266.9375"/><text fill="#000000" font-family="sans-serif" font-size="12" lengthAdjust="spacing" textLength="65.1563" x="317.4609" y="288.0762">deleteUser</text><rect fill="#F1F1F1" height="33.9688" rx="12.5" ry="12.5" style="stroke:#181818;stroke-width:0.5;" width="89.6328" x="420.6172" y="266.9375"/><text fill="#000000" font-family="sans-serif" font-size="12" lengthAdjust="spacing" textLength="69.6328" x="430.6172" y="288.0762">updateUser</text><rect fill="#F1F1F1" height="33.9688" rx="12.5" ry="12.5" style="stroke:#181818;stroke-width:0.5;" width="96.623" x="538.25" y="266.9375"/><text fill="#000000" font-family="sans-serif" font-size="12" lengthAdjust="spacing" textLength="76.623" x="548.25" y="288.0762">findUserById</text><rect fill="#555555" height="6" rx="2.5" ry="2.5" style="stroke:#555555;stroke-width:1;" width="355.4121" x="293.4609" y="320.9063"/><rect fill="#F1F1F1" height="33.9688" rx="12.5" ry="12.5" style="stroke:#181818;stroke-width:0.5;" width="49.7246" x="668.873" y="240.9375"/><text fill="#000000" font-family="sans-serif" font-size="12" lengthAdjust="spacing" textLength="29.7246" x="678.873" y="262.0762">Error</text><ellipse cx="693.7354" cy="320.9063" fill="none" rx="11" ry="11" style="stroke:#222222;stroke-width:1;"/><ellipse cx="693.7354" cy="320.9063" fill="#222222" rx="6" ry="6" style="stroke:#222222;stroke-width:1;"/><polygon fill="#F1F1F1" points="350.3408,341.9063,362.3408,353.9063,350.3408,365.9063,338.3408,353.9063,350.3408,341.9063" style="stroke:#181818;stroke-width:0.5;"/><ellipse cx="350.3408" cy="396.9063" fill="none" rx="11" ry="11" style="stroke:#222222;stroke-width:1;"/><ellipse cx="350.3408" cy="396.9063" fill="#222222" rx="6" ry="6" style="stroke:#222222;stroke-width:1;"/><line style="stroke:#181818;stroke-width:1;" x1="350.3408" x2="350.3408" y1="30" y2="50"/><polygon fill="#181818" points="346.3408,40,350.3408,50,354.3408,40,350.3408,44" style="stroke:#181818;stroke-width:1;"/><line style="stroke:#181818;stroke-width:1;" x1="56.2705" x2="56.2705" y1="143.9688" y2="163.9688"/><polygon fill="#181818" points="52.2705,153.9688,56.2705,163.9688,60.2705,153.9688,56.2705,157.9688" style="stroke:#181818;stroke-width:1;"/><line style="stroke:#181818;stroke-width:1;" x1="124.1572" x2="124.1572" y1="143.9688" y2="163.9688"/><polygon fill="#181818" points="120.1572,153.9688,124.1572,163.9688,128.1572,153.9688,124.1572,157.9688" style="stroke:#181818;stroke-width:1;"/><line style="stroke:#181818;stroke-width:1;" x1="204.1172" x2="204.1172" y1="143.9688" y2="163.9688"/><polygon fill="#181818" points="200.1172,153.9688,204.1172,163.9688,208.1172,153.9688,204.1172,157.9688" style="stroke:#181818;stroke-width:1;"/><line style="stroke:#181818;stroke-width:1;" x1="56.2705" x2="56.2705" y1="197.9375" y2="217.9375"/><polygon fill="#181818" points="52.2705,207.9375,56.2705,217.9375,60.2705,207.9375,56.2705,211.9375" style="stroke:#181818;stroke-width:1;"/><line style="stroke:#181818;stroke-width:1;" x1="124.1572" x2="124.1572" y1="197.9375" y2="217.9375"/><polygon fill="#181818" points="120.1572,207.9375,124.1572,217.9375,128.1572,207.9375,124.1572,211.9375" style="stroke:#181818;stroke-width:1;"/><line style="stroke:#181818;stroke-width:1;" x1="204.1172" x2="204.1172" y1="197.9375" y2="217.9375"/><polygon fill="#181818" points="200.1172,207.9375,204.1172,217.9375,208.1172,207.9375,204.1172,211.9375" style="stroke:#181818;stroke-width:1;"/><line style="stroke:#181818;stroke-width:1;" x1="350.0391" x2="350.0391" y1="246.9375" y2="266.9375"/><polygon fill="#181818" points="346.0391,256.9375,350.0391,266.9375,354.0391,256.9375,350.0391,260.9375" style="stroke:#181818;stroke-width:1;"/><line style="stroke:#181818;stroke-width:1;" x1="465.4336" x2="465.4336" y1="246.9375" y2="266.9375"/><polygon fill="#181818" points="461.4336,256.9375,465.4336,266.9375,469.4336,256.9375,465.4336,260.9375" style="stroke:#181818;stroke-width:1;"/><line style="stroke:#181818;stroke-width:1;" x1="586.5615" x2="586.5615" y1="246.9375" y2="266.9375"/><polygon fill="#181818" points="582.5615,256.9375,586.5615,266.9375,590.5615,256.9375,586.5615,260.9375" style="stroke:#181818;stroke-width:1;"/><line style="stroke:#181818;stroke-width:1;" x1="350.0391" x2="350.0391" y1="300.9063" y2="320.9063"/><polygon fill="#181818" points="346.0391,310.9063,350.0391,320.9063,354.0391,310.9063,350.0391,314.9063" style="stroke:#181818;stroke-width:1;"/><line style="stroke:#181818;stroke-width:1;" x1="465.4336" x2="465.4336" y1="300.9063" y2="320.9063"/><polygon fill="#181818" points="461.4336,310.9063,465.4336,320.9063,469.4336,310.9063,465.4336,314.9063" style="stroke:#181818;stroke-width:1;"/><line style="stroke:#181818;stroke-width:1;" x1="586.5615" x2="586.5615" y1="300.9063" y2="320.9063"/><polygon fill="#181818" points="582.5615,310.9063,586.5615,320.9063,590.5615,310.9063,586.5615,314.9063" style="stroke:#181818;stroke-width:1;"/><line style="stroke:#181818;stroke-width:1;" x1="693.7354" x2="693.7354" y1="274.9063" y2="309.9063"/><polygon fill="#181818" points="689.7354,299.9063,693.7354,309.9063,697.7354,299.9063,693.7354,303.9063" style="stroke:#181818;stroke-width:1;"/><line style="stroke:#181818;stroke-width:1;" x1="532.4668" x2="471.167" y1="218.9375" y2="218.9375"/><line style="stroke:#181818;stroke-width:1;" x1="471.167" x2="471.167" y1="218.9375" y2="240.9375"/><polygon fill="#181818" points="467.167,230.9375,471.167,240.9375,475.167,230.9375,471.167,234.9375" style="stroke:#181818;stroke-width:1;"/><line style="stroke:#181818;stroke-width:1;" x1="632.4355" x2="693.7354" y1="218.9375" y2="218.9375"/><line style="stroke:#181818;stroke-width:1;" x1="693.7354" x2="693.7354" y1="218.9375" y2="240.9375"/><polygon fill="#181818" points="689.7354,230.9375,693.7354,240.9375,697.7354,230.9375,693.7354,234.9375" style="stroke:#181818;stroke-width:1;"/><line style="stroke:#181818;stroke-width:1;" x1="471.167" x2="471.167" y1="326.9063" y2="353.9063"/><line style="stroke:#181818;stroke-width:1;" x1="471.167" x2="362.3408" y1="353.9063" y2="353.9063"/><polygon fill="#181818" points="372.3408,349.9063,362.3408,353.9063,372.3408,357.9063,368.3408,353.9063" style="stroke:#181818;stroke-width:1;"/><line style="stroke:#181818;stroke-width:1;" x1="582.4512" x2="582.4512" y1="171.9375" y2="206.9375"/><polygon fill="#181818" points="578.4512,196.9375,582.4512,206.9375,586.4512,196.9375,582.4512,200.9375" style="stroke:#181818;stroke-width:1;"/><line style="stroke:#181818;stroke-width:1;" x1="300.9204" x2="136.2305" y1="115.9688" y2="115.9688"/><line style="stroke:#181818;stroke-width:1;" x1="136.2305" x2="136.2305" y1="115.9688" y2="137.9688"/><polygon fill="#181818" points="132.2305,127.9688,136.2305,137.9688,140.2305,127.9688,136.2305,131.9688" style="stroke:#181818;stroke-width:1;"/><line style="stroke:#181818;stroke-width:1;" x1="399.7612" x2="582.4512" y1="115.9688" y2="115.9688"/><line style="stroke:#181818;stroke-width:1;" x1="582.4512" x2="582.4512" y1="115.9688" y2="137.9688"/><polygon fill="#181818" points="578.4512,127.9688,582.4512,137.9688,586.4512,127.9688,582.4512,131.9688" style="stroke:#181818;stroke-width:1;"/><line style="stroke:#181818;stroke-width:1;" x1="136.2305" x2="136.2305" y1="223.9375" y2="353.9063"/><line style="stroke:#181818;stroke-width:1;" x1="136.2305" x2="338.3408" y1="353.9063" y2="353.9063"/><polygon fill="#181818" points="328.3408,349.9063,338.3408,353.9063,328.3408,357.9063,332.3408,353.9063" style="stroke:#181818;stroke-width:1;"/><line style="stroke:#181818;stroke-width:1;" x1="350.3408" x2="350.3408" y1="83.9688" y2="103.9688"/><polygon fill="#181818" points="346.3408,93.9688,350.3408,103.9688,354.3408,93.9688,350.3408,97.9688" style="stroke:#181818;stroke-width:1;"/><line style="stroke:#181818;stroke-width:1;" x1="350.3408" x2="350.3408" y1="365.9063" y2="385.9063"/><polygon fill="#181818" points="346.3408,375.9063,350.3408,385.9063,354.3408,375.9063,350.3408,379.9063" style="stroke:#181818;stroke-width:1;"/><!--SRC=[VOynJWCn44LxdsBApHKs1H8I1GKK10vWTiRBA9Qz6e-3SfmS81KTxLwCsNM48a0qzkZ_v-y_HRsewtSvyi1Q4IY1LFK5aA2MweLpsJh70Redqs6QFr-DzJSRq3U3kzrytZY0a6Ll5q0lD79Hakr51JzwJisBUUJqbt4WuN1ypdjQRKhO4YaMWkunBr_q3umOwTqBmIHPQL1OtraTy5KfgKq3pn-MOVpIUKs4mtoAZFbdvwlMbeuKIUcbjEQ_AXfH9_J_4u4JBlxjyHuRyxs9ZLUx67idaYz1HVFKjkRWshb8Nm00]--></g></svg>