<svg xmlns="http://www.w3.org/2000/svg" xmlns:xlink="http://www.w3.org/1999/xlink" contentStyleType="text/css" height="831px" preserveAspectRatio="none" style="width:890px;height:831px;background:#FFFFFF;" version="1.1" viewBox="0 0 890 831" width="890px" zoomAndPan="magnify"><defs/><g><!--cluster Frontend Structure--><g id="cluster_Frontend Structure"><rect fill="none" height="818.45" rx="2.5" ry="2.5" style="stroke:#000000;stroke-width:1.5;" width="877" x="7" y="7"/><text fill="#000000" font-family="sans-serif" font-size="14" font-weight="bold" lengthAdjust="spacing" textLength="152.1064" x="369.4468" y="21.9951">Frontend Structure</text></g><!--cluster Components--><g id="cluster_Components"><rect fill="none" height="147.89" rx="2.5" ry="2.5" style="stroke:#000000;stroke-width:1.5;" width="390" x="31" y="637.56"/><text fill="#000000" font-family="sans-serif" font-size="14" font-weight="bold" lengthAdjust="spacing" textLength="98.5742" x="176.7129" y="652.5551">Components</text></g><!--cluster Pages--><g id="cluster_Pages"><rect fill="none" height="213.08" rx="2.5" ry="2.5" style="stroke:#000000;stroke-width:1.5;" width="369" x="193" y="359.48"/><text fill="#000000" font-family="sans-serif" font-size="14" font-weight="bold" lengthAdjust="spacing" textLength="47.5576" x="353.7212" y="374.4751">Pages</text></g><!--cluster Api--><g id="cluster_Api"><rect fill="none" height="163.89" rx="2.5" ry="2.5" style="stroke:#000000;stroke-width:1.5;" width="399" x="453" y="629.56"/><text fill="#000000" font-family="sans-serif" font-size="14" font-weight="bold" lengthAdjust="spacing" textLength="25.6553" x="639.6724" y="644.5551">Api</text></g><!--class App--><g id="elem_App"><rect codeLine="40" fill="#F1F1F1" height="96.8906" id="App" rx="2.5" ry="2.5" style="stroke:#181818;stroke-width:0.5;" width="150.0654" x="270.97" y="199.59"/><ellipse cx="328.0774" cy="215.59" fill="#ADD1B2" rx="11" ry="11" style="stroke:#181818;stroke-width:1;"/><path d="M331.0462,221.2306 Q330.468,221.5275 329.8274,221.6681 Q329.1868,221.8244 328.4837,221.8244 Q325.9837,221.8244 324.6555,220.1838 Q323.343,218.5275 323.343,215.4025 Q323.343,212.2775 324.6555,210.6213 Q325.9837,208.965 328.4837,208.965 Q329.1868,208.965 329.8274,209.1213 Q330.4837,209.2775 331.0462,209.5744 L331.0462,212.2931 Q330.4212,211.715 329.8274,211.4494 Q329.2337,211.1681 328.6087,211.1681 Q327.2649,211.1681 326.5774,212.2463 Q325.8899,213.3088 325.8899,215.4025 Q325.8899,217.4963 326.5774,218.5744 Q327.2649,219.6369 328.6087,219.6369 Q329.2337,219.6369 329.8274,219.3713 Q330.4212,219.09 331.0462,218.5119 L331.0462,221.2306 Z " fill="#000000"/><text fill="#000000" font-family="sans-serif" font-size="14" lengthAdjust="spacing" textLength="27.3506" x="348.5774" y="220.4367">App</text><line style="stroke:#181818;stroke-width:0.5;" x1="271.97" x2="420.0354" y1="231.59" y2="231.59"/><line style="stroke:#181818;stroke-width:0.5;" x1="271.97" x2="420.0354" y1="239.59" y2="239.59"/><ellipse cx="281.97" cy="253.2384" fill="#84BE84" rx="3" ry="3" style="stroke:#038048;stroke-width:1;"/><text fill="#000000" font-family="sans-serif" font-size="14" lengthAdjust="spacing" textLength="57.4219" x="290.97" y="256.5851">render()</text><ellipse cx="281.97" cy="269.5353" fill="#84BE84" rx="3" ry="3" style="stroke:#038048;stroke-width:1;"/><text fill="#000000" font-family="sans-serif" font-size="14" lengthAdjust="spacing" textLength="108.1787" x="290.97" y="272.882">loadAuthPage()</text><ellipse cx="281.97" cy="285.8322" fill="#84BE84" rx="3" ry="3" style="stroke:#038048;stroke-width:1;"/><text fill="#000000" font-family="sans-serif" font-size="14" lengthAdjust="spacing" textLength="124.0654" x="290.97" y="289.1789">loadSurveyPage()</text></g><!--class Index--><g id="elem_Index"><rect codeLine="46" fill="#F1F1F1" height="80.5938" id="Index" rx="2.5" ry="2.5" style="stroke:#181818;stroke-width:0.5;" width="94.1953" x="298.9" y="42"/><ellipse cx="324.4337" cy="58" fill="#ADD1B2" rx="11" ry="11" style="stroke:#181818;stroke-width:1;"/><path d="M327.4024,63.6406 Q326.8243,63.9375 326.1837,64.0781 Q325.5431,64.2344 324.8399,64.2344 Q322.3399,64.2344 321.0118,62.5938 Q319.6993,60.9375 319.6993,57.8125 Q319.6993,54.6875 321.0118,53.0313 Q322.3399,51.375 324.8399,51.375 Q325.5431,51.375 326.1837,51.5313 Q326.8399,51.6875 327.4024,51.9844 L327.4024,54.7031 Q326.7774,54.125 326.1837,53.8594 Q325.5899,53.5781 324.9649,53.5781 Q323.6212,53.5781 322.9337,54.6563 Q322.2462,55.7188 322.2462,57.8125 Q322.2462,59.9063 322.9337,60.9844 Q323.6212,62.0469 324.9649,62.0469 Q325.5899,62.0469 326.1837,61.7813 Q326.7774,61.5 327.4024,60.9219 L327.4024,63.6406 Z " fill="#000000"/><text fill="#000000" font-family="sans-serif" font-size="14" lengthAdjust="spacing" textLength="38.7871" x="340.7745" y="62.8467">Index</text><line style="stroke:#181818;stroke-width:0.5;" x1="299.9" x2="392.0953" y1="74" y2="74"/><line style="stroke:#181818;stroke-width:0.5;" x1="299.9" x2="392.0953" y1="82" y2="82"/><ellipse cx="309.9" cy="95.6484" fill="#84BE84" rx="3" ry="3" style="stroke:#038048;stroke-width:1;"/><text fill="#000000" font-family="sans-serif" font-size="14" lengthAdjust="spacing" textLength="57.4219" x="318.9" y="98.9951">render()</text><ellipse cx="309.9" cy="111.9453" fill="#84BE84" rx="3" ry="3" style="stroke:#038048;stroke-width:1;"/><text fill="#000000" font-family="sans-serif" font-size="14" lengthAdjust="spacing" textLength="68.1953" x="318.9" y="115.292">loadApp()</text></g><!--class AuthForm--><g id="elem_AuthForm"><rect codeLine="5" fill="#F1F1F1" height="96.8906" id="AuthForm" rx="2.5" ry="2.5" style="stroke:#181818;stroke-width:0.5;" width="142.9082" x="46.55" y="672.56"/><ellipse cx="80.4878" cy="688.56" fill="#ADD1B2" rx="11" ry="11" style="stroke:#181818;stroke-width:1;"/><path d="M83.4565,694.2006 Q82.8784,694.4975 82.2378,694.6381 Q81.5972,694.7944 80.894,694.7944 Q78.394,694.7944 77.0659,693.1538 Q75.7534,691.4975 75.7534,688.3725 Q75.7534,685.2475 77.0659,683.5913 Q78.394,681.935 80.894,681.935 Q81.5972,681.935 82.2378,682.0913 Q82.894,682.2475 83.4565,682.5444 L83.4565,685.2631 Q82.8315,684.685 82.2378,684.4194 Q81.644,684.1381 81.019,684.1381 Q79.6753,684.1381 78.9878,685.2163 Q78.3003,686.2788 78.3003,688.3725 Q78.3003,690.4663 78.9878,691.5444 Q79.6753,692.6069 81.019,692.6069 Q81.644,692.6069 82.2378,692.3413 Q82.8315,692.06 83.4565,691.4819 L83.4565,694.2006 Z " fill="#000000"/><text fill="#000000" font-family="sans-serif" font-size="14" lengthAdjust="spacing" textLength="68.8242" x="98.6962" y="693.4067">AuthForm</text><line style="stroke:#181818;stroke-width:0.5;" x1="47.55" x2="188.4582" y1="704.56" y2="704.56"/><line style="stroke:#181818;stroke-width:0.5;" x1="47.55" x2="188.4582" y1="712.56" y2="712.56"/><ellipse cx="57.55" cy="726.2084" fill="#84BE84" rx="3" ry="3" style="stroke:#038048;stroke-width:1;"/><text fill="#000000" font-family="sans-serif" font-size="14" lengthAdjust="spacing" textLength="57.4219" x="66.55" y="729.5551">render()</text><ellipse cx="57.55" cy="742.5053" fill="#84BE84" rx="3" ry="3" style="stroke:#038048;stroke-width:1;"/><text fill="#000000" font-family="sans-serif" font-size="14" lengthAdjust="spacing" textLength="96.6533" x="66.55" y="745.852">handleLogin()</text><ellipse cx="57.55" cy="758.8022" fill="#84BE84" rx="3" ry="3" style="stroke:#038048;stroke-width:1;"/><text fill="#000000" font-family="sans-serif" font-size="14" lengthAdjust="spacing" textLength="116.9082" x="66.55" y="762.1489">handleRegister()</text></g><!--class SurveyForm--><g id="elem_SurveyForm"><rect codeLine="10" fill="#F1F1F1" height="80.5938" id="SurveyForm" rx="2.5" ry="2.5" style="stroke:#181818;stroke-width:0.5;" width="180.1641" x="224.92" y="680.71"/><ellipse cx="268.4739" cy="696.71" fill="#ADD1B2" rx="11" ry="11" style="stroke:#181818;stroke-width:1;"/><path d="M271.4427,702.3506 Q270.8645,702.6475 270.2239,702.7881 Q269.5833,702.9444 268.8802,702.9444 Q266.3802,702.9444 265.052,701.3038 Q263.7395,699.6475 263.7395,696.5225 Q263.7395,693.3975 265.052,691.7413 Q266.3802,690.085 268.8802,690.085 Q269.5833,690.085 270.2239,690.2413 Q270.8802,690.3975 271.4427,690.6944 L271.4427,693.4131 Q270.8177,692.835 270.2239,692.5694 Q269.6302,692.2881 269.0052,692.2881 Q267.6614,692.2881 266.9739,693.3663 Q266.2864,694.4288 266.2864,696.5225 Q266.2864,698.6163 266.9739,699.6944 Q267.6614,700.7569 269.0052,700.7569 Q269.6302,700.7569 270.2239,700.4913 Q270.8177,700.21 271.4427,699.6319 L271.4427,702.3506 Z " fill="#000000"/><text fill="#000000" font-family="sans-serif" font-size="14" lengthAdjust="spacing" textLength="84.7109" x="288.8192" y="701.5567">SurveyForm</text><line style="stroke:#181818;stroke-width:0.5;" x1="225.92" x2="404.0841" y1="712.71" y2="712.71"/><line style="stroke:#181818;stroke-width:0.5;" x1="225.92" x2="404.0841" y1="720.71" y2="720.71"/><ellipse cx="235.92" cy="734.3584" fill="#84BE84" rx="3" ry="3" style="stroke:#038048;stroke-width:1;"/><text fill="#000000" font-family="sans-serif" font-size="14" lengthAdjust="spacing" textLength="57.4219" x="244.92" y="737.7051">render()</text><ellipse cx="235.92" cy="750.6553" fill="#84BE84" rx="3" ry="3" style="stroke:#038048;stroke-width:1;"/><text fill="#000000" font-family="sans-serif" font-size="14" lengthAdjust="spacing" textLength="154.1641" x="244.92" y="754.002">handleCreateSurvey()</text></g><!--class AuthPage--><g id="elem_AuthPage"><rect codeLine="17" fill="#F1F1F1" height="80.5938" id="AuthPage" rx="2.5" ry="2.5" style="stroke:#181818;stroke-width:0.5;" width="135.6689" x="209.17" y="435.22"/><ellipse cx="240.5207" cy="451.22" fill="#ADD1B2" rx="11" ry="11" style="stroke:#181818;stroke-width:1;"/><path d="M243.4895,456.8606 Q242.9114,457.1575 242.2707,457.2981 Q241.6301,457.4544 240.927,457.4544 Q238.427,457.4544 237.0989,455.8138 Q235.7864,454.1575 235.7864,451.0325 Q235.7864,447.9075 237.0989,446.2513 Q238.427,444.595 240.927,444.595 Q241.6301,444.595 242.2707,444.7513 Q242.927,444.9075 243.4895,445.2044 L243.4895,447.9231 Q242.8645,447.345 242.2707,447.0794 Q241.677,446.7981 241.052,446.7981 Q239.7082,446.7981 239.0207,447.8763 Q238.3332,448.9388 238.3332,451.0325 Q238.3332,453.1263 239.0207,454.2044 Q239.7082,455.2669 241.052,455.2669 Q241.677,455.2669 242.2707,455.0013 Q242.8645,454.72 243.4895,454.1419 L243.4895,456.8606 Z " fill="#000000"/><text fill="#000000" font-family="sans-serif" font-size="14" lengthAdjust="spacing" textLength="67.334" x="258.1542" y="456.0667">AuthPage</text><line style="stroke:#181818;stroke-width:0.5;" x1="210.17" x2="343.8389" y1="467.22" y2="467.22"/><line style="stroke:#181818;stroke-width:0.5;" x1="210.17" x2="343.8389" y1="475.22" y2="475.22"/><ellipse cx="220.17" cy="488.8684" fill="#84BE84" rx="3" ry="3" style="stroke:#038048;stroke-width:1;"/><text fill="#000000" font-family="sans-serif" font-size="14" lengthAdjust="spacing" textLength="57.4219" x="229.17" y="492.2151">render()</text><ellipse cx="220.17" cy="505.1653" fill="#84BE84" rx="3" ry="3" style="stroke:#038048;stroke-width:1;"/><text fill="#000000" font-family="sans-serif" font-size="14" lengthAdjust="spacing" textLength="109.6689" x="229.17" y="508.512">loadAuthForm()</text></g><!--class SurveyPage--><g id="elem_SurveyPage"><rect codeLine="21" fill="#F1F1F1" height="162.0781" id="SurveyPage" rx="2.5" ry="2.5" style="stroke:#181818;stroke-width:0.5;" width="166.3965" x="379.8" y="394.48"/><ellipse cx="417.8291" cy="410.48" fill="#ADD1B2" rx="11" ry="11" style="stroke:#181818;stroke-width:1;"/><path d="M420.7979,416.1206 Q420.2197,416.4175 419.5791,416.5581 Q418.9385,416.7144 418.2354,416.7144 Q415.7354,416.7144 414.4072,415.0738 Q413.0947,413.4175 413.0947,410.2925 Q413.0947,407.1675 414.4072,405.5113 Q415.7354,403.855 418.2354,403.855 Q418.9385,403.855 419.5791,404.0113 Q420.2354,404.1675 420.7979,404.4644 L420.7979,407.1831 Q420.1729,406.605 419.5791,406.3394 Q418.9854,406.0581 418.3604,406.0581 Q417.0166,406.0581 416.3291,407.1363 Q415.6416,408.1988 415.6416,410.2925 Q415.6416,412.3863 416.3291,413.4644 Q417.0166,414.5269 418.3604,414.5269 Q418.9854,414.5269 419.5791,414.2613 Q420.1729,413.98 420.7979,413.4019 L420.7979,416.1206 Z " fill="#000000"/><text fill="#000000" font-family="sans-serif" font-size="14" lengthAdjust="spacing" textLength="83.2207" x="436.9467" y="415.3267">SurveyPage</text><line style="stroke:#181818;stroke-width:0.5;" x1="380.8" x2="545.1965" y1="426.48" y2="426.48"/><line style="stroke:#181818;stroke-width:0.5;" x1="380.8" x2="545.1965" y1="434.48" y2="434.48"/><ellipse cx="390.8" cy="448.1284" fill="#84BE84" rx="3" ry="3" style="stroke:#038048;stroke-width:1;"/><text fill="#000000" font-family="sans-serif" font-size="14" lengthAdjust="spacing" textLength="57.4219" x="399.8" y="451.4751">render()</text><ellipse cx="390.8" cy="464.4253" fill="#84BE84" rx="3" ry="3" style="stroke:#038048;stroke-width:1;"/><text fill="#000000" font-family="sans-serif" font-size="14" lengthAdjust="spacing" textLength="125.5557" x="399.8" y="467.772">loadSurveyForm()</text><ellipse cx="390.8" cy="480.7222" fill="#84BE84" rx="3" ry="3" style="stroke:#038048;stroke-width:1;"/><text fill="#000000" font-family="sans-serif" font-size="14" lengthAdjust="spacing" textLength="140.3965" x="399.8" y="484.0689">viewSurveyDetails()</text><ellipse cx="390.8" cy="497.0191" fill="#84BE84" rx="3" ry="3" style="stroke:#038048;stroke-width:1;"/><text fill="#000000" font-family="sans-serif" font-size="14" lengthAdjust="spacing" textLength="103.7285" x="399.8" y="500.3657">deleteSurvey()</text><ellipse cx="390.8" cy="513.3159" fill="#84BE84" rx="3" ry="3" style="stroke:#038048;stroke-width:1;"/><text fill="#000000" font-family="sans-serif" font-size="14" lengthAdjust="spacing" textLength="103.1406" x="399.8" y="516.6626">editUserData()</text><ellipse cx="390.8" cy="529.6128" fill="#84BE84" rx="3" ry="3" style="stroke:#038048;stroke-width:1;"/><text fill="#000000" font-family="sans-serif" font-size="14" lengthAdjust="spacing" textLength="86.9395" x="399.8" y="532.9595">deleteUser()</text><ellipse cx="390.8" cy="545.9097" fill="#84BE84" rx="3" ry="3" style="stroke:#038048;stroke-width:1;"/><text fill="#000000" font-family="sans-serif" font-size="14" lengthAdjust="spacing" textLength="55.1934" x="399.8" y="549.2564">logout()</text></g><!--class Api--><g id="elem_Api"><rect codeLine="33" fill="#F1F1F1" height="96.8906" id="Api" rx="2.5" ry="2.5" style="stroke:#181818;stroke-width:0.5;" width="332.2637" x="476.87" y="672.56"/><ellipse cx="627.5751" cy="688.56" fill="#ADD1B2" rx="11" ry="11" style="stroke:#181818;stroke-width:1;"/><path d="M630.5438,694.2006 Q629.9657,694.4975 629.3251,694.6381 Q628.6845,694.7944 627.9813,694.7944 Q625.4813,694.7944 624.1532,693.1538 Q622.8407,691.4975 622.8407,688.3725 Q622.8407,685.2475 624.1532,683.5913 Q625.4813,681.935 627.9813,681.935 Q628.6845,681.935 629.3251,682.0913 Q629.9813,682.2475 630.5438,682.5444 L630.5438,685.2631 Q629.9188,684.685 629.3251,684.4194 Q628.7313,684.1381 628.1063,684.1381 Q626.7626,684.1381 626.0751,685.2163 Q625.3876,686.2788 625.3876,688.3725 Q625.3876,690.4663 626.0751,691.5444 Q626.7626,692.6069 628.1063,692.6069 Q628.7313,692.6069 629.3251,692.3413 Q629.9188,692.06 630.5438,691.4819 L630.5438,694.2006 Z " fill="#000000"/><text fill="#000000" font-family="sans-serif" font-size="14" lengthAdjust="spacing" textLength="22.3535" x="648.0751" y="693.4067">Api</text><line style="stroke:#181818;stroke-width:0.5;" x1="477.87" x2="808.1337" y1="704.56" y2="704.56"/><line style="stroke:#181818;stroke-width:0.5;" x1="477.87" x2="808.1337" y1="712.56" y2="712.56"/><ellipse cx="487.87" cy="726.2084" fill="#84BE84" rx="3" ry="3" style="stroke:#038048;stroke-width:1;"/><text fill="#000000" font-family="sans-serif" font-size="14" lengthAdjust="spacing" textLength="306.2637" x="496.87" y="729.5551">sendRequest(endpoint: string, data: object)</text><ellipse cx="487.87" cy="742.5053" fill="#84BE84" rx="3" ry="3" style="stroke:#038048;stroke-width:1;"/><text fill="#000000" font-family="sans-serif" font-size="14" lengthAdjust="spacing" textLength="156.2422" x="496.87" y="745.852">handleAuthRequests()</text><ellipse cx="487.87" cy="758.8022" fill="#84BE84" rx="3" ry="3" style="stroke:#038048;stroke-width:1;"/><text fill="#000000" font-family="sans-serif" font-size="14" lengthAdjust="spacing" textLength="172.1289" x="496.87" y="762.1489">handleSurveyRequests()</text></g><!--link AuthPage to AuthForm--><g id="link_AuthPage_AuthForm"><path codeLine="51" d="M251.1,516.18 C223.2,558.9 182.1107,621.8264 152.3507,667.3964 " fill="none" id="AuthPage-to-AuthForm" style="stroke:#181818;stroke-width:1;"/><polygon fill="#181818" points="149.07,672.42,157.3402,667.0717,151.8039,668.2336,150.642,662.6974,149.07,672.42" style="stroke:#181818;stroke-width:1;"/><text fill="#000000" font-family="sans-serif" font-size="13" lengthAdjust="spacing" textLength="29.7832" x="203" y="601.6269">uses</text></g><!--link SurveyPage to SurveyForm--><g id="link_SurveyPage_SurveyForm"><path codeLine="52" d="M414.13,556.92 C388.95,598.34 362.4972,641.8733 342.2372,675.1933 " fill="none" id="SurveyPage-to-SurveyForm" style="stroke:#181818;stroke-width:1;"/><polygon fill="#181818" points="339.12,680.32,347.2136,674.7081,341.7177,676.0478,340.3781,670.5518,339.12,680.32" style="stroke:#181818;stroke-width:1;"/><text fill="#000000" font-family="sans-serif" font-size="13" lengthAdjust="spacing" textLength="29.7832" x="394" y="601.6269">uses</text></g><!--link SurveyPage to Api--><g id="link_SurveyPage_Api"><path codeLine="53" d="M546.62,484.68 C630.15,497.47 755.79,530.18 825,613.56 C828.7763,618.11 831.9109,623.1519 834.5048,628.4957 C834.6669,628.8297 832.2767,623.7338 832.4346,624.0701 " fill="none" id="SurveyPage-to-Api" style="stroke:#181818;stroke-width:1;"/><polygon fill="#181818" points="834.9848,629.5011,834.7802,619.6544,832.8596,624.9753,827.5388,623.0547,834.9848,629.5011" style="stroke:#181818;stroke-width:1;"/><text fill="#000000" font-family="sans-serif" font-size="13" lengthAdjust="spacing" textLength="29.1104" x="812" y="601.6269">calls</text></g><!--link AuthPage to Api--><g id="link_AuthPage_Api"><path codeLine="54" d="M287.74,516.26 C298.24,546.55 317.48,586.22 350,605.56 C372.69,619.05 804.91,596.45 825,613.56 C829.5013,617.3938 833.1825,621.8956 836.1774,626.8432 C836.5517,627.4616 836.9154,628.087 837.2686,628.7189 C837.3568,628.8769 834.5618,623.7732 834.6488,623.932 " fill="none" id="AuthPage-to-Api" style="stroke:#181818;stroke-width:1;"/><polygon fill="#181818" points="837.5315,629.1941,836.7155,619.3791,835.1292,624.809,829.6994,623.2227,837.5315,629.1941" style="stroke:#181818;stroke-width:1;"/><text fill="#000000" font-family="sans-serif" font-size="13" lengthAdjust="spacing" textLength="29.1104" x="351" y="601.6269">calls</text></g><!--link App to AuthPage--><g id="link_App_AuthPage"><path codeLine="55" d="M331.37,296.86 C318.79,337.96 302.6159,390.8027 290.8359,429.2927 " fill="none" id="App-to-AuthPage" style="stroke:#181818;stroke-width:1;"/><polygon fill="#181818" points="289.08,435.03,295.5388,427.5947,290.5433,430.2489,287.889,425.2534,289.08,435.03" style="stroke:#181818;stroke-width:1;"/><text fill="#000000" font-family="sans-serif" font-size="13" lengthAdjust="spacing" textLength="49.9497" x="322" y="339.5469">renders</text></g><!--link App to SurveyPage--><g id="link_App_SurveyPage"><path codeLine="56" d="M370.81,296.86 C385.5,325.17 401.726,356.4345 418.656,389.0545 " fill="none" id="App-to-SurveyPage" style="stroke:#181818;stroke-width:1;"/><polygon fill="#181818" points="421.42,394.38,420.8244,384.5492,419.1167,389.9421,413.7238,388.2344,421.42,394.38" style="stroke:#181818;stroke-width:1;"/><text fill="#000000" font-family="sans-serif" font-size="13" lengthAdjust="spacing" textLength="49.9497" x="395" y="339.5469">renders</text></g><!--link Index to App--><g id="link_Index_App"><path codeLine="57" d="M346,122.93 C346,145.93 346,169.05 346,193.31 " fill="none" id="Index-to-App" style="stroke:#181818;stroke-width:1;"/><polygon fill="#181818" points="346,199.31,350,190.31,346,194.31,342,190.31,346,199.31" style="stroke:#181818;stroke-width:1;"/><text fill="#000000" font-family="sans-serif" font-size="13" lengthAdjust="spacing" textLength="49.9497" x="347" y="165.6569">renders</text></g><!--SRC=[bLFBRi8m4BpdAonEL2q_a4Cb14Agr4C5wWUuyIgu6DkrrxIeujzhuuJ4UHJm8OeyixExiskxur9JG_T4qs97IzZWKG0nK62MLLTaiZ9A8aX6DcXSWSx0XFncn9yBPQ7sMacGQ6ied49GQydSuNQbpBu5XFFeqqW6PlhGkTvIoGIygfBB4MmD9RUOX9uwIJVE7E1uVzg50OeGetlofopj-ir_HneEqAsPXQAiDkbgI_SADqRqu0E7xmWl0IaNjiTW8630ZGW2u_XkmImfqf7800zKLIg7LysTQpvWhUQzvgrlVWrV3YnE_QzMN69EB1ekooV2V7KvKH-VVgU7Hnwih-Bjo5P41mP8IUbrYRfLui1ice67MVQ0PimLbAY_UB6Vc_IrJkClMpcRFJTlCYSJP_qIdocj3GkarXlwZnPcul622b4HqbHzs3jK5t6cUJXsqI6q4dKfqOUehnFqz0S0]--></g></svg>