<svg xmlns="http://www.w3.org/2000/svg" xmlns:xlink="http://www.w3.org/1999/xlink" contentStyleType="text/css" height="395px" preserveAspectRatio="none" style="width:317px;height:395px;background:#FFFFFF;" version="1.1" viewBox="0 0 317 395" width="317px" zoomAndPan="magnify"><defs/><g><!--cluster SurveyManagement--><g id="cluster_SurveyManagement"><rect fill="none" height="378" rx="2.5" ry="2.5" style="stroke:#181818;stroke-width:1;" width="208.91" x="102.21" y="7"/><text fill="#000000" font-family="sans-serif" font-size="14" font-weight="bold" lengthAdjust="spacing" textLength="162.627" x="125.3515" y="21.9951">Survey Management</text></g><g id="elem_UC_CreateSurvey"><ellipse cx="206.6552" cy="60.001" fill="#F1F1F1" rx="77.7552" ry="17.951" style="stroke:#181818;stroke-width:0.5;"/><text fill="#000000" font-family="sans-serif" font-size="14" lengthAdjust="spacing" textLength="113.0049" x="147.5997" y="63.631">Create a Survey</text></g><g id="elem_UC_GetAllSurveys"><ellipse cx="206.663" cy="352.0026" fill="#F1F1F1" rx="75.463" ry="17.4926" style="stroke:#181818;stroke-width:0.5;"/><text fill="#000000" font-family="sans-serif" font-size="14" lengthAdjust="spacing" textLength="107.2012" x="150.0624" y="355.7501">Get All Surveys</text></g><g id="elem_UC_GetSurveyById"><ellipse cx="206.6607" cy="281.0001" fill="#F1F1F1" rx="79.4507" ry="18.2901" style="stroke:#181818;stroke-width:0.5;"/><text fill="#000000" font-family="sans-serif" font-size="14" lengthAdjust="spacing" textLength="117.1885" x="146.1904" y="284.4417">Get Survey by Id</text></g><g id="elem_UC_GetSurveyByTitle"><ellipse cx="206.6647" cy="208.0029" fill="#F1F1F1" rx="86.8647" ry="19.7729" style="stroke:#181818;stroke-width:0.5;"/><text fill="#000000" font-family="sans-serif" font-size="14" lengthAdjust="spacing" textLength="134.6064" x="139.3615" y="210.8496">Get Survey by Title</text></g><g id="elem_UC_DeleteSurvey"><ellipse cx="206.6556" cy="133.0011" fill="#F1F1F1" rx="88.4556" ry="20.0911" style="stroke:#181818;stroke-width:0.5;"/><text fill="#000000" font-family="sans-serif" font-size="14" lengthAdjust="spacing" textLength="138.2363" x="137.5375" y="135.8478">Delete Survey by Id</text></g><!--entity User--><g id="elem_User"><ellipse cx="32.1051" cy="141.35" fill="#F1F1F1" rx="8" ry="8" style="stroke:#181818;stroke-width:0.5;"/><path d="M32.1051,149.35 L32.1051,176.35 M19.1051,157.35 L45.1051,157.35 M32.1051,176.35 L19.1051,191.35 M32.1051,176.35 L45.1051,191.35 " fill="none" style="stroke:#181818;stroke-width:0.5;"/><text fill="#000000" font-family="sans-serif" font-size="14" lengthAdjust="spacing" textLength="31.9102" x="16.15" y="205.8451">User</text></g><!--entity System--><g id="elem_System"><ellipse cx="32.103" cy="322.35" fill="#F1F1F1" rx="8" ry="8" style="stroke:#181818;stroke-width:0.5;"/><path d="M32.103,330.35 L32.103,357.35 M19.103,338.35 L45.103,338.35 M32.103,357.35 L19.103,372.35 M32.103,357.35 L45.103,372.35 " fill="none" style="stroke:#181818;stroke-width:0.5;"/><text fill="#000000" font-family="sans-serif" font-size="14" lengthAdjust="spacing" textLength="52.2061" x="6" y="386.8451">System</text></g><!--link User to UC_CreateSurvey--><g id="link_User_UC_CreateSurvey"><path d="M48.5,144.75 C59.37,128.32 75.33,107.89 94.21,95 C109.7,84.42 122.7979,78.6268 140.5579,73.3568 " fill="none" id="User-to-UC_CreateSurvey" style="stroke:#181818;stroke-width:1;"/><polygon fill="#181818" points="146.31,71.65,136.5439,70.3755,141.5166,73.0724,138.8197,78.045,146.31,71.65" style="stroke:#181818;stroke-width:1;"/></g><!--link User to UC_GetSurveyById--><g id="link_User_UC_GetSurveyById"><path d="M48.44,196.15 C59.39,212.18 75.46,232.27 94.21,245 C109.85,255.62 123.1012,261.5291 140.9312,266.9691 " fill="none" id="User-to-UC_GetSurveyById" style="stroke:#181818;stroke-width:1;"/><polygon fill="#181818" points="146.67,268.72,139.229,262.2677,141.8876,267.2609,136.8945,269.9195,146.67,268.72" style="stroke:#181818;stroke-width:1;"/></g><!--link User to UC_GetSurveyByTitle--><g id="link_User_UC_GetSurveyByTitle"><path d="M48.42,174.28 C69.37,178.78 102.3634,185.8518 136.2134,193.1118 " fill="none" id="User-to-UC_GetSurveyByTitle" style="stroke:#181818;stroke-width:1;"/><polygon fill="#181818" points="142.08,194.37,134.1189,188.5716,137.1912,193.3215,132.4413,196.3937,142.08,194.37" style="stroke:#181818;stroke-width:1;"/></g><!--link User to UC_DeleteSurvey--><g id="link_User_UC_DeleteSurvey"><path d="M48.42,167.63 C69.37,163.01 102.3706,155.7513 136.2206,148.2913 " fill="none" id="User-to-UC_DeleteSurvey" style="stroke:#181818;stroke-width:1;"/><polygon fill="#181818" points="142.08,147,132.43,145.0307,137.1972,148.0761,134.1518,152.8432,142.08,147" style="stroke:#181818;stroke-width:1;"/></g><!--link System to UC_GetAllSurveys--><g id="link_System_UC_GetAllSurveys"><path d="M58.56,352 C77.69,352 98.93,352 124.77,352 " fill="none" id="System-to-UC_GetAllSurveys" style="stroke:#181818;stroke-width:1;"/><polygon fill="#181818" points="130.77,352,121.77,348,125.77,352,121.77,356,130.77,352" style="stroke:#181818;stroke-width:1;"/></g><!--SRC=[VP7D2i8m383lVOgm-rv1q0coWwUvizGjpaBNGPi9HNntkxMobarpAb_oaPzAl1FG05fq3u9MQ6n838entj2WeJQemxEoXh1dRAhWgfC8MJNg9reuSyKxx55H1jo0fmk45mCNey666sSL6ZaXy50uEtLnzTYpL3WXmLxAK6- -WiEE1hWsmd0t2sKRAHuVRDd-Kow296vOCq_58qfqwsorywcmqfkvcEu9URvRBHmdqYb_PFmaSJBfnlntHU9ogmy0]--></g></svg>