<svg xmlns="http://www.w3.org/2000/svg" xmlns:xlink="http://www.w3.org/1999/xlink" contentStyleType="text/css" height="518px" preserveAspectRatio="none" style="width:309px;height:518px;background:#FFFFFF;" version="1.1" viewBox="0 0 309 518" width="309px" zoomAndPan="magnify"><defs/><g><!--cluster UserManagement--><g id="cluster_UserManagement"><rect fill="none" height="505" rx="2.5" ry="2.5" style="stroke:#181818;stroke-width:1;" width="203.32" x="100.61" y="7"/><text fill="#000000" font-family="sans-serif" font-size="14" font-weight="bold" lengthAdjust="spacing" textLength="144.0264" x="130.2568" y="21.9951">User Management</text></g><g id="elem_UC_CreateUser"><ellipse cx="202.2689" cy="197.0018" fill="#F1F1F1" rx="71.2589" ry="16.6518" style="stroke:#181818;stroke-width:0.5;"/><text fill="#000000" font-family="sans-serif" font-size="14" lengthAdjust="spacing" textLength="96.2158" x="151.1609" y="200.7493">Create a User</text></g><g id="elem_UC_Login"><ellipse cx="202.2741" cy="130.9957" fill="#F1F1F1" rx="38.4641" ry="14.5557" style="stroke:#181818;stroke-width:0.5;"/><text fill="#000000" font-family="sans-serif" font-size="14" lengthAdjust="spacing" textLength="38.0146" x="181.4" y="134.4506">Login</text></g><g id="elem_UC_DeleteUser"><ellipse cx="202.2675" cy="62.0015" fill="#F1F1F1" rx="85.6575" ry="19.5315" style="stroke:#181818;stroke-width:0.5;"/><text fill="#000000" font-family="sans-serif" font-size="14" lengthAdjust="spacing" textLength="131.8379" x="136.3485" y="64.8482">Delete User (itself)</text></g><g id="elem_UC_UpdateUser"><ellipse cx="202.2721" cy="268.0004" fill="#F1F1F1" rx="83.2021" ry="19.0404" style="stroke:#181818;stroke-width:0.5;"/><text fill="#000000" font-family="sans-serif" font-size="14" lengthAdjust="spacing" textLength="126.1504" x="138.672" y="271.0251">Update User by Id</text></g><g id="elem_UC_GetUserById"><ellipse cx="202.2688" cy="478.9978" fill="#F1F1F1" rx="72.8388" ry="16.9678" style="stroke:#181818;stroke-width:0.5;"/><text fill="#000000" font-family="sans-serif" font-size="14" lengthAdjust="spacing" textLength="100.3994" x="149.0691" y="482.7453">Get User by Id</text></g><g id="elem_UC_GetUserByEmail"><ellipse cx="202.2742" cy="407.9968" fill="#F1F1F1" rx="83.2342" ry="19.0468" style="stroke:#181818;stroke-width:0.5;"/><text fill="#000000" font-family="sans-serif" font-size="14" lengthAdjust="spacing" textLength="126.2256" x="138.6474" y="411.0179">Get User by Email</text></g><g id="elem_UC_VerifyToken"><ellipse cx="202.266" cy="338.0032" fill="#F1F1F1" rx="68.316" ry="16.0632" style="stroke:#181818;stroke-width:0.5;"/><text fill="#000000" font-family="sans-serif" font-size="14" lengthAdjust="spacing" textLength="88.2109" x="155.1605" y="341.7508">Verify Token</text></g><!--entity User--><g id="elem_User"><ellipse cx="31.3051" cy="134.35" fill="#F1F1F1" rx="8" ry="8" style="stroke:#181818;stroke-width:0.5;"/><path d="M31.3051,142.35 L31.3051,169.35 M18.3051,150.35 L44.3051,150.35 M31.3051,169.35 L18.3051,184.35 M31.3051,169.35 L44.3051,184.35 " fill="none" style="stroke:#181818;stroke-width:0.5;"/><text fill="#000000" font-family="sans-serif" font-size="14" lengthAdjust="spacing" textLength="31.9102" x="15.35" y="198.8451">User</text></g><!--entity system--><g id="elem_system"><ellipse cx="31.3066" cy="378.35" fill="#F1F1F1" rx="8" ry="8" style="stroke:#181818;stroke-width:0.5;"/><path d="M31.3066,386.35 L31.3066,413.35 M18.3066,394.35 L44.3066,394.35 M31.3066,413.35 L18.3066,428.35 M31.3066,413.35 L44.3066,428.35 " fill="none" style="stroke:#181818;stroke-width:0.5;"/><text fill="#000000" font-family="sans-serif" font-size="14" lengthAdjust="spacing" textLength="50.6133" x="6" y="442.8451">system</text></g><!--link User to UC_CreateUser--><g id="link_User_UC_CreateUser"><path d="M47.6,166.99 C69.78,171.32 106.1015,178.4089 140.6815,185.1689 " fill="none" id="User-to-UC_CreateUser" style="stroke:#181818;stroke-width:1;"/><polygon fill="#181818" points="146.57,186.32,138.5046,180.6676,141.6629,185.3607,136.9698,188.519,146.57,186.32" style="stroke:#181818;stroke-width:1;"/></g><!--link User to UC_Login--><g id="link_User_UC_Login"><path d="M47.6,161.01 C74.49,155.76 124.9514,145.9109 161.4314,138.7809 " fill="none" id="User-to-UC_Login" style="stroke:#181818;stroke-width:1;"/><polygon fill="#181818" points="167.32,137.63,157.7198,135.4307,162.4128,138.5891,159.2544,143.2821,167.32,137.63" style="stroke:#181818;stroke-width:1;"/></g><!--link User to UC_DeleteUser--><g id="link_User_UC_DeleteUser"><path d="M47.57,142.67 C58.66,128.55 74.79,110.56 92.61,99 C107.58,89.29 119.6649,83.7382 136.4649,78.1682 " fill="none" id="User-to-UC_DeleteUser" style="stroke:#181818;stroke-width:1;"/><polygon fill="#181818" points="142.16,76.28,132.3585,75.3156,137.414,77.8535,134.8761,82.9091,142.16,76.28" style="stroke:#181818;stroke-width:1;"/></g><!--link User to UC_UpdateUser--><g id="link_User_UC_UpdateUser"><path d="M47.68,186.32 C58.7,200.84 74.72,219.2 92.61,231 C107.83,241.04 120.358,246.7626 137.488,252.3726 " fill="none" id="User-to-UC_UpdateUser" style="stroke:#181818;stroke-width:1;"/><polygon fill="#181818" points="143.19,254.24,135.8819,247.6376,138.4383,252.6838,133.3921,255.2403,143.19,254.24" style="stroke:#181818;stroke-width:1;"/></g><!--link system to UC_GetUserById--><g id="link_system_UC_GetUserById"><path d="M57.07,425.11 C67.68,431.93 80.43,439.46 92.61,445 C111.42,453.55 127.2132,459.0991 146.1432,464.6591 " fill="none" id="system-to-UC_GetUserById" style="stroke:#181818;stroke-width:1;"/><polygon fill="#181818" points="151.9,466.35,144.392,459.9758,147.1026,464.941,142.1375,467.6516,151.9,466.35" style="stroke:#181818;stroke-width:1;"/></g><!--link system to UC_GetUserByEmail--><g id="link_system_UC_GetUserByEmail"><path d="M56.88,408 C73.35,408 90.09,408 112.65,408 " fill="none" id="system-to-UC_GetUserByEmail" style="stroke:#181818;stroke-width:1;"/><polygon fill="#181818" points="118.65,408,109.65,404,113.65,408,109.65,412,118.65,408" style="stroke:#181818;stroke-width:1;"/></g><!--link system to UC_VerifyToken--><g id="link_system_UC_VerifyToken"><path d="M57.05,390.84 C67.66,384.01 80.4,376.49 92.61,371 C111.94,362.31 128.4248,356.727 147.7348,351.287 " fill="none" id="system-to-UC_VerifyToken" style="stroke:#181818;stroke-width:1;"/><polygon fill="#181818" points="153.51,349.66,143.7625,348.2503,148.6973,351.0158,145.9319,355.9506,153.51,349.66" style="stroke:#181818;stroke-width:1;"/></g><!--SRC=[TP4z3i8m38NtdC9YWe4hCF0ZX0GRPKMcTKj4cg3431NYxhG9WPH2f_HxxpcsewXaO0DMLcU6GbhAMHej1EPiB6IExEle6iTKYyw0kb84eqw47Mgig2RD8q3d0ny4Tm7jTtEKesiJ2ql81EXjmRyu1kXlwfctff8wclnFNr-IehQOxs8isP4g9z4Uj67Dx5fWp9mQs1Gn48HXO4tymztI3iwRJV7VlgfHga72qtxeG5QM3UpDXTxp1kQHU0ZXQqwdiwzzfJXiA2N94bASZ1hUD0hfL7-Kq7rVJ5fz0W00]--></g></svg>